<svg width="20" height="24" viewBox="0 0 20 24" fill="none" xmlns="http://www.w3.org/2000/svg">
<path d="M10.1039 0C12.6927 0 15.1755 1.02723 17.0061 2.85571C18.8367 4.68419 19.8652 7.16414 19.8652 9.75C19.8652 13.87 16.9668 18.36 11.2452 23.268C10.927 23.541 10.5214 23.6909 10.102 23.6905C9.68259 23.6902 9.27722 23.5395 8.95955 23.266L8.58111 22.938C3.11279 18.158 0.34259 13.778 0.34259 9.75C0.34259 7.16414 1.37101 4.68419 3.2016 2.85571C5.0322 1.02723 7.51502 0 10.1039 0ZM10.1039 6C9.10816 6 8.15323 6.39509 7.44916 7.09835C6.74508 7.80161 6.34953 8.75544 6.34953 9.75C6.34953 10.7446 6.74508 11.6984 7.44916 12.4017C8.15323 13.1049 9.10816 13.5 10.1039 13.5C11.0996 13.5 12.0545 13.1049 12.7586 12.4017C13.4627 11.6984 13.8582 10.7446 13.8582 9.75C13.8582 8.75544 13.4627 7.80161 12.7586 7.09835C12.0545 6.39509 11.0996 6 10.1039 6Z" fill="#7583A5"/>
</svg>
