<svg width="31" height="33" viewBox="0 0 31 33" fill="none" xmlns="http://www.w3.org/2000/svg">
<path d="M16.9776 15.7826L22.3464 10.3573L5.00535 0.508291C3.85605 -0.119195 2.77938 -0.207263 1.83526 0.478936L16.9776 15.7826ZM23.2615 22.1346L28.8428 18.9623C29.9321 18.3458 30.5295 17.4725 30.5295 16.5037C30.5295 15.5368 29.9321 14.6616 28.8446 14.0451L23.7917 11.1774L18.1033 16.9239L23.2615 22.1346ZM0.902022 1.8128C0.785822 2.17425 0.720459 2.5779 0.720459 3.02007V30.0002C0.720459 30.6992 0.872972 31.301 1.14895 31.7799L15.8501 16.922L0.902022 1.8128ZM16.9776 18.0596L2.35816 32.8349C2.63777 32.9431 2.93916 33 3.2569 33C3.82337 33 4.41345 32.8312 5.01443 32.4936L21.8181 22.9584L16.9776 18.0596Z" fill="white"/>
</svg>
