<svg width="23" height="24" viewBox="0 0 23 24" fill="none" xmlns="http://www.w3.org/2000/svg">
<path d="M22.3552 18.1295C22.1589 19.7556 21.426 21.2481 20.2935 22.3285C19.161 23.4088 17.7064 24.0029 16.2012 24C7.45695 24 0.3426 16.2479 0.3426 6.71982C0.339902 5.07976 0.885193 3.4947 1.87663 2.26069C2.86806 1.02669 4.23784 0.228127 5.73012 0.0141573C6.10748 -0.0360501 6.48963 0.0480719 6.8195 0.253966C7.14938 0.45986 7.40931 0.776482 7.56047 1.15657L9.8864 6.81462V6.82902C10.0021 7.11997 10.0499 7.43762 10.0255 7.7536C10.0011 8.06959 9.90526 8.37406 9.74653 8.63984C9.72671 8.67224 9.70579 8.70224 9.68376 8.73224L7.39087 11.6939C8.21574 13.5203 9.969 15.4139 11.6672 16.3151L14.3477 13.8299C14.3741 13.8058 14.4016 13.7833 14.4303 13.7627C14.674 13.5856 14.9544 13.4775 15.2461 13.4481C15.5378 13.4188 15.8316 13.4692 16.101 13.5947L16.1153 13.6019L21.3035 16.1351C21.6529 16.2992 21.9442 16.5822 22.1338 16.9417C22.3234 17.3012 22.4011 17.7179 22.3552 18.1295Z" fill="#7583A5"/>
</svg>
