<svg width="48" height="48" viewBox="0 0 48 48" fill="none" xmlns="http://www.w3.org/2000/svg">
<path d="M43.086 14.2081C43.1152 14.6314 43.1152 15.0544 43.1152 15.4816C43.1152 28.4941 33.2089 43.5016 15.0953 43.5016V43.4941C9.74403 43.5016 4.50372 41.9688 0 39.0788C0.778125 39.1726 1.56 39.2194 2.34375 39.2213C6.77892 39.2249 11.0865 37.7373 14.5744 34.9977C12.5194 34.9589 10.5279 34.2788 8.87828 33.0526C7.22872 31.8265 6.00357 30.1154 5.37413 28.1588C6.8505 28.4438 8.3715 28.3849 9.8205 27.9889C5.226 27.0608 1.92075 23.0243 1.92075 18.3364V18.2116C3.29036 18.9746 4.82327 19.3973 6.39038 19.4442C2.0625 16.5522 0.729375 10.7956 3.34238 6.29518C5.81471 9.33742 8.89935 11.8256 12.3959 13.598C15.8925 15.3705 19.7228 16.3876 23.6381 16.5833C23.2479 14.9028 23.3056 13.1494 23.8056 11.4982C24.3056 9.8471 25.2304 8.35618 26.4874 7.17455C30.4538 3.44593 36.6919 3.63718 40.4201 7.60168C42.6256 7.1662 44.7406 6.3576 46.674 5.21068C45.9388 7.49094 44.4004 9.42656 42.345 10.6576C44.2971 10.4274 46.2035 9.90466 48 9.10693C46.6784 11.086 45.0144 12.8135 43.086 14.2081Z" fill="#1D9BF0"/>
</svg>
